<svg xmlns="http://www.w3.org/2000/svg" viewBox="0 0 256 257">
  <defs>
    <linearGradient id="a" x1="-.83%" x2="57.64%" y1="7.65%" y2="78.41%">
      <stop offset="0%" stop-color="#41D1FF"/>
      <stop offset="100%" stop-color="#BD34FE"/>
    </linearGradient>
    <linearGradient id="b" x1="43.38%" x2="50.32%" y1="2.24%" y2="89.03%">
      <stop offset="0%" stop-color="#FFEA83"/>
      <stop offset="8.33%" stop-color="#FFDD35"/>
      <stop offset="100%" stop-color="#FFA800"/>
    </linearGradient>
  </defs>
  <path fill="url(#a)" d="M255.15 37.94 134.9 252.98a6.54 6.54 0 0 1-11.39.04L.87 37.96a6.53 6.53 0 0 1 6.83-9.67L128.1 49.8a6.54 6.54 0 0 0 2.32 0l117.87-21.48c5.43-1 9.57 4.8 6.87 9.62Z"/>
  <path fill="url(#b)" d="M185.43.06 96.44 17.5a3.27 3.27 0 0 0-2.63 3.02l-5.48 92.45a3.27 3.27 0 0 0 4 3.38l24.78-5.72a3.27 3.27 0 0 1 3.93 3.84l-7.36 36.05a3.27 3.27 0 0 0 4.15 3.78l15.3-4.65a3.27 3.27 0 0 1 4.16 3.78l-11.7 56.63c-.73 3.54 3.98 5.47 5.94 2.43l1.31-2.02 72.52-144.72a3.27 3.27 0 0 0-3.54-4.68L176.32 66a3.27 3.27 0 0 1-3.76-4.12l16.64-57.7a3.27 3.27 0 0 0-3.77-4.12Z"/>
</svg>
